# xmcd
# 
# Track frame offsets:
#     150
#     15782
#     27905
#     39950
#     53258
#     66796
#     79350
#     93276
#     105580
#     114879
#     125414
#     136112
#     151377
#     165207
#     176905
#     187392
#     198705
#     220263
#     238018
#     256778
#     272673
#     287763
#     300649
# 
# Disc length: 4229
# 
# Revision: 4
# Processed by: cddbd v1.5.2PL0 Copyright (c) Steve Scherf et al.
# Submitted via: fre:ac v1.0.31
# 
DISCID=2f108317
DTITLE=Various Artist - Disc 5 - The Best Of The Blues
DYEAR=2000
DGENRE=Blues
TTITLE0=Bessie Smith - Downhearted Blues
TTITLE1=Robert Johnson - Cross Road Blues
TTITLE2=T-Bone Walker - Bobby Sox Blues
TTITLE3=Howlin' Wolf - The Wolf Is At Your Door (Howlin' For My Baby)
TTITLE4=Walter Horton - Easy
TTITLE5=Muddy Waters - Got My Mojo Working
TTITLE6=Jimmy Rogers - Blues, Leave Me Alone
TTITLE7=Little Walter - Juke
TTITLE8=Guitar Jr. - I Got It Made (When I Marry Shirley Mae)
TTITLE9=Memphis Slim - Gotta Find My Baby
TTITLE10=Jimmy Reed - Baby What You Want Me To Do
TTITLE11=Lightning Hopkins - Big Car Blues
TTITLE12=Albert King - Searching For A Woman
TTITLE13=Sonny Boy Williamson - Don't Start Me Talkin'
TTITLE14=Buddy Guy - First Time I Met The Blues
TTITLE15=Elmore James - Rollin' And Tumbling
TTITLE16=Super Super Blues Band - Goin' Down Slow
TTITLE17=Walter "Wolfman" Washington - Nobody's Fault But Mine
TTITLE18=John Mayall's Bluesbreakers - I Ain't Got You
TTITLE19=John Lee Hooker - Dirty Ground Hog
TTITLE20=Elmore James - It Hurts Me Too
TTITLE21=Beg Mac feat. Hubert Sumlin - Rough Dried Woman
TTITLE22=The Yardbirds feat. Jeff Beck - I Ain't Done Wrong
EXTD=The Ultimate Blues Box [CD 5 of 6)
EXTT0=
EXTT1=
EXTT2=
EXTT3=
EXTT4=
EXTT5=
EXTT6=
EXTT7=
EXTT8=
EXTT9=
EXTT10=
EXTT11=
EXTT12=
EXTT13=
EXTT14=
EXTT15=
EXTT16=
EXTT17=
EXTT18=
EXTT19=
EXTT20=
EXTT21=
EXTT22=
PLAYORDER=
